<?xml version="1.0" standalone="no"?>
<!DOCTYPE svg PUBLIC "-//W3C//DTD SVG 20010904//EN"
 "http://www.w3.org/TR/2001/REC-SVG-20010904/DTD/svg10.dtd">
<svg version="1.0" xmlns="http://www.w3.org/2000/svg"
 width="639.000000pt" height="639.000000pt" viewBox="0 0 639.000000 639.000000"
 preserveAspectRatio="xMidYMid meet">
<metadata>
Created by potrace 1.14, written by Peter Selinger 2001-2017
</metadata>
<g transform="translate(0.000000,639.000000) scale(0.100000,-0.100000)"
fill="#000000" stroke="none">
<path d="M3005 6383 c-407 -32 -697 -99 -1024 -233 -402 -165 -721 -380 -1041
-700 -224 -224 -380 -425 -522 -675 -593 -1042 -549 -2351 112 -3341 127 -190
230 -314 410 -494 180 -180 304 -283 494 -410 869 -580 2000 -691 2975 -290
271 111 513 253 761 444 135 104 432 401 536 536 380 492 584 992 666 1630 15
123 16 556 0 685 -77 629 -285 1142 -666 1635 -104 135 -401 432 -536 536
-523 404 -1090 623 -1744 674 -120 9 -327 11 -421 3z m352 -193 c753 -46 1431
-349 1958 -875 719 -719 1022 -1736 816 -2737 -94 -452 -307 -899 -607 -1272
-423 -526 -1053 -911 -1712 -1047 -791 -163 -1606 -7 -2267 432 -584 389 -999
941 -1214 1612 -105 331 -153 714 -131 1060 28 443 129 812 328 1202 478 936
1434 1561 2481 1624 69 5 140 9 156 9 17 1 103 -3 192 -8z"/>
<path d="M3634 5943 c2 -16 7 -107 11 -203 3 -96 8 -203 11 -237 l6 -61 82
-21 c63 -15 83 -17 92 -8 18 20 264 425 264 434 0 9 -148 49 -154 42 -2 -2
-34 -61 -72 -131 -38 -70 -72 -128 -76 -128 -4 0 -9 68 -10 152 l-3 152 -70
18 c-90 23 -88 23 -81 -9z"/>
<path d="M2395 5882 c-104 -30 -191 -57 -193 -58 -4 -3 135 -474 142 -481 4
-4 332 87 403 112 13 4 -18 117 -34 122 -5 2 -62 -13 -128 -32 -66 -19 -122
-32 -126 -27 -4 4 -10 16 -13 27 -6 19 4 24 109 54 63 18 115 35 115 38 0 3
-7 30 -16 60 -12 42 -20 54 -32 50 -175 -50 -213 -60 -217 -56 -2 3 -6 16 -7
28 -3 22 6 26 117 59 66 19 122 36 124 38 8 8 -33 124 -43 123 -6 0 -96 -26
-201 -57z"/>
<path d="M4200 5543 c-63 -119 -115 -219 -115 -221 0 -5 365 -202 374 -202 6
0 61 100 61 110 0 3 -52 32 -115 65 -63 33 -115 65 -115 71 0 5 6 18 13 28 13
17 20 15 117 -37 l104 -56 28 51 c16 29 25 55 21 59 -5 4 -52 30 -105 59 -94
49 -97 52 -86 76 6 13 15 24 20 24 6 0 59 -27 118 -59 78 -42 112 -56 118 -47
23 28 53 99 45 106 -13 13 -348 190 -359 190 -5 0 -61 -98 -124 -217z"/>
<path d="M1825 5641 c-75 -19 -153 -80 -188 -145 -31 -60 -29 -154 6 -222 38
-75 71 -110 133 -140 100 -49 217 -22 301 69 51 55 71 129 54 194 -6 23 -16
45 -20 48 -5 3 -37 -11 -71 -32 -58 -34 -61 -38 -57 -67 7 -46 -9 -75 -47 -91
-45 -19 -71 -9 -118 43 -46 51 -65 112 -47 154 21 52 97 71 129 33 9 -11 23
-7 71 22 33 20 62 40 65 45 8 13 -25 47 -68 69 -44 22 -102 31 -143 20z"/>
<path d="M4770 5233 c-85 -91 -161 -175 -169 -186 -12 -17 -9 -23 25 -59 67
-68 68 -68 138 1 l62 61 37 -38 c46 -48 47 -73 2 -136 -19 -27 -35 -54 -35
-60 0 -6 23 -34 51 -62 l52 -52 42 57 c57 78 65 94 65 135 0 34 2 36 33 36
101 0 171 129 118 215 -16 27 -241 246 -259 253 -4 1 -77 -73 -162 -165z m238
-73 c45 -43 52 -69 26 -94 -23 -24 -40 -20 -86 21 -24 21 -45 38 -46 40 -5 2
52 73 58 73 4 0 25 -18 48 -40z"/>
<path d="M2905 5274 c-554 -78 -1061 -372 -1396 -809 -227 -296 -373 -657
-419 -1035 -13 -109 -13 -361 0 -470 75 -618 410 -1165 923 -1506 687 -458
1610 -474 2302 -39 528 331 869 842 972 1454 25 146 24 512 0 656 -155 897
-831 1577 -1727 1737 -156 27 -497 34 -655 12z m476 -184 c737 -75 1367 -558
1620 -1242 274 -742 52 -1582 -553 -2096 -399 -338 -939 -507 -1446 -451 -837
91 -1507 683 -1686 1490 -189 854 241 1732 1036 2114 323 155 683 220 1029
185z"/>
<path d="M2470 4449 l0 -391 43 7 c23 4 105 23 182 43 114 29 159 36 245 36
99 1 111 -1 202 -37 54 -21 100 -43 103 -48 11 -17 33 -9 92 31 106 73 228 77
438 15 65 -19 125 -35 132 -35 10 0 13 78 13 385 l0 385 -725 0 -725 0 0 -391z
m380 159 c0 -7 -15 -84 -32 -170 l-33 -158 -36 0 -36 0 19 88 c10 48 20 97 23
110 5 20 2 22 -35 22 -22 0 -40 4 -40 9 0 25 14 41 36 41 14 0 40 15 62 35 37
35 72 46 72 23z m230 -3 c18 -10 34 -30 46 -61 15 -39 16 -54 6 -106 -6 -33
-22 -76 -34 -95 -31 -46 -98 -77 -144 -68 -71 13 -118 95 -55 95 21 0 32 -6
36 -19 14 -46 83 -31 110 24 20 44 19 47 -13 28 -34 -20 -91 -12 -116 16 -10
11 -20 37 -23 59 -13 100 96 174 187 127z m294 4 c62 -29 74 -148 25 -245 -19
-38 -35 -54 -72 -73 -43 -21 -53 -22 -87 -12 -53 16 -74 52 -75 126 0 75 40
163 88 194 36 23 83 27 121 10z m336 -14 c0 -16 -15 -42 -39 -68 -49 -54 -94
-128 -117 -194 -17 -49 -21 -53 -51 -53 -20 0 -33 5 -33 13 0 24 58 133 104
195 l46 62 -75 0 c-67 0 -75 2 -75 19 0 49 6 51 126 51 l114 0 0 -25z"/>
<path d="M2982 4554 c-25 -17 -31 -81 -10 -102 18 -18 63 -14 81 6 22 25 21
75 -1 95 -23 21 -41 21 -70 1z"/>
<path d="M3275 4544 c-43 -47 -59 -185 -24 -207 9 -5 28 -7 43 -3 36 9 65 74
69 151 2 46 -2 59 -17 71 -28 20 -44 18 -71 -12z"/>
<path d="M2845 4069 c-101 -13 -365 -76 -470 -112 l-90 -31 -367 -3 -368 -4 0
-725 0 -724 239 0 c286 0 280 -2 300 109 24 136 73 194 162 195 45 1 54 -3 80
-31 28 -32 32 -43 44 -115 8 -48 26 -42 61 22 14 26 37 54 52 61 37 20 133 16
174 -8 50 -29 62 -62 49 -136 -12 -67 -9 -81 9 -46 7 12 30 41 52 65 37 40 45
44 87 44 60 0 129 -34 158 -79 27 -40 31 -113 9 -166 l-15 -35 45 0 c38 0 51
-6 86 -38 37 -35 42 -45 46 -94 l4 -56 72 -41 c77 -44 143 -54 189 -30 83 44
33 101 -230 265 -66 41 -73 51 -47 61 32 12 92 -19 219 -113 223 -166 322
-198 388 -124 28 31 32 47 19 65 -13 19 -393 267 -478 312 -91 48 -131 87
-113 109 16 19 85 -10 170 -72 25 -19 93 -57 149 -85 61 -30 149 -85 214 -136
130 -99 191 -133 243 -133 90 0 152 93 106 160 -57 87 -293 274 -484 384 -60
34 -99 71 -99 92 0 13 6 15 27 9 32 -8 229 -128 288 -175 22 -18 81 -59 130
-93 50 -33 117 -86 150 -117 70 -66 103 -85 165 -94 81 -11 152 25 165 84 13
61 -33 116 -216 253 -88 66 -137 117 -194 200 -37 53 -49 63 -150 114 -185 93
-215 124 -284 285 -39 91 -58 113 -111 129 -35 11 -42 10 -53 -4 -6 -8 -50
-35 -96 -58 -72 -37 -94 -43 -169 -48 l-85 -6 -26 -50 c-87 -168 -245 -305
-352 -305 -55 0 -124 28 -170 69 -61 54 -58 71 44 275 47 94 91 187 97 207 26
87 59 121 188 188 124 66 157 90 283 204 l73 66 -55 25 c-55 25 -159 47 -214
45 -16 -1 -61 -6 -100 -10z"/>
<path d="M3440 4071 c-77 -25 -126 -59 -286 -192 -50 -42 -139 -105 -198 -139
-178 -104 -230 -156 -261 -260 -4 -14 -29 -59 -55 -100 -113 -178 -118 -237
-29 -294 26 -16 27 -16 54 16 35 41 85 149 85 183 0 19 -9 29 -35 42 -19 9
-35 20 -35 25 0 24 107 -8 127 -39 14 -21 13 -28 -21 -100 -21 -43 -56 -97
-79 -120 -47 -49 -38 -54 36 -17 128 64 219 165 276 305 17 41 31 64 31 51 0
-32 22 -37 98 -23 107 20 198 64 285 137 79 67 89 71 61 28 -9 -13 -15 -26
-13 -27 2 -2 27 -18 56 -36 42 -26 59 -47 100 -118 58 -104 168 -224 249 -273
31 -19 105 -54 163 -78 97 -39 102 -43 60 -39 l-47 4 51 -69 c66 -90 112 -136
227 -223 144 -109 192 -170 177 -225 -5 -19 0 -20 159 -20 l164 0 0 724 0 724
-357 4 c-297 3 -365 7 -398 20 -22 9 -76 31 -120 48 -132 53 -257 81 -385 86
-63 2 -126 0 -140 -5z"/>
<path d="M2183 2714 c-31 -31 -20 -44 39 -44 31 0 40 -5 53 -30 18 -35 19 -76
2 -109 -23 -46 -36 -37 -30 22 5 49 3 56 -18 71 -13 9 -38 16 -55 16 -28 0
-33 -4 -39 -31 -8 -34 3 -162 16 -196 13 -35 67 -64 114 -61 l40 3 2 64 c2 46
9 74 27 105 21 36 23 47 16 93 -5 28 -13 61 -19 72 -30 55 -105 68 -148 25z"/>
<path d="M2533 2669 c-44 -13 -41 -25 8 -33 52 -8 89 -44 89 -87 0 -45 -35
-114 -65 -127 -31 -14 -42 1 -22 31 21 33 38 92 32 109 -8 21 -49 38 -88 38
-29 0 -37 -7 -76 -70 -53 -87 -60 -127 -32 -201 25 -65 49 -89 111 -112 79
-29 85 -26 85 42 0 51 7 72 46 148 55 105 64 138 49 192 -16 61 -72 89 -137
70z"/>
<path d="M2806 2571 c-16 -17 -15 -19 15 -31 51 -21 89 -59 89 -87 0 -28 -65
-153 -80 -153 -23 0 -19 25 10 70 21 33 29 56 25 69 -7 22 -95 76 -105 64 -3
-5 -32 -52 -64 -106 -81 -137 -85 -183 -24 -253 55 -62 141 -85 153 -41 15 53
101 215 132 248 35 37 38 49 35 132 -2 39 -8 54 -31 78 -25 25 -37 29 -84 29
-40 0 -58 -5 -71 -19z"/>
<path d="M2997 2303 c-27 -7 -16 -25 23 -38 19 -6 42 -23 53 -37 16 -21 17
-31 8 -64 -12 -44 -36 -82 -46 -73 -3 4 0 27 7 53 11 42 11 48 -8 66 -11 12
-36 23 -56 26 -35 6 -37 5 -67 -47 -39 -69 -41 -116 -5 -153 40 -39 93 -52
157 -37 104 23 145 70 92 105 -22 15 -25 24 -25 76 0 32 -5 70 -11 84 -16 35
-70 53 -122 39z"/>
<path d="M3859 2183 c-19 -48 -25 -56 -53 -77 -24 -18 -43 -21 -134 -21 -91
-1 -119 -5 -187 -29 -63 -22 -89 -27 -125 -22 -138 20 -146 20 -184 -9 -49
-37 -128 -65 -186 -65 -37 0 -67 9 -122 38 -40 20 -96 45 -123 54 -28 9 -75
35 -104 58 -36 26 -65 40 -85 40 -17 0 -43 7 -58 14 l-28 15 0 -315 0 -314
725 0 725 0 0 330 0 330 -25 0 c-18 0 -28 -8 -36 -27z"/>
<path d="M1260 5191 c-69 -21 -140 -82 -176 -151 -27 -51 -25 -162 3 -216 45
-86 164 -164 248 -164 127 0 265 138 265 265 0 61 -33 129 -89 186 -76 76
-168 105 -251 80z m117 -171 c23 -17 51 -50 63 -74 19 -41 20 -47 6 -79 -18
-44 -48 -61 -97 -54 -76 10 -159 109 -143 171 17 69 102 86 171 36z"/>
<path d="M5235 4744 c-110 -69 -204 -130 -209 -134 -10 -10 112 -209 158 -258
51 -55 100 -75 170 -70 73 4 140 35 193 87 57 55 76 101 71 176 -4 58 -10 72
-85 191 -44 70 -85 129 -89 131 -5 1 -99 -54 -209 -123z m226 -156 c16 -49 -2
-92 -52 -125 -44 -29 -96 -34 -131 -11 -23 15 -66 83 -58 91 3 3 48 32 100 65
l95 61 17 -22 c10 -12 23 -39 29 -59z"/>
<path d="M815 4631 c-45 -27 -56 -44 -138 -198 l-75 -143 32 -18 c17 -11 103
-56 191 -102 88 -46 174 -91 192 -102 l31 -19 36 68 c20 37 36 70 36 73 0 3
-34 23 -75 45 -41 22 -75 42 -75 45 0 4 13 27 30 53 35 55 54 59 138 27 29
-11 58 -18 63 -14 8 5 69 117 69 127 0 2 -32 16 -71 32 -58 22 -81 27 -125 22
-51 -5 -54 -4 -54 17 0 29 -33 72 -70 91 -39 20 -99 19 -135 -4z m86 -151 c11
-6 19 -21 19 -35 0 -27 -39 -115 -51 -115 -10 0 -79 41 -79 46 0 12 34 71 53
92 23 25 30 26 58 12z"/>
<path d="M5572 4135 c-129 -40 -235 -75 -237 -77 -4 -5 115 -392 125 -401 10
-11 120 21 120 35 0 6 -17 64 -37 129 -20 66 -34 121 -32 124 3 2 16 6 29 7
22 3 26 -5 56 -100 18 -57 35 -106 38 -109 6 -6 96 16 108 26 4 4 -8 56 -27
116 -19 61 -35 111 -35 112 0 0 13 6 29 11 l28 10 38 -124 c21 -68 44 -124 50
-124 11 0 106 30 113 35 5 4 -121 405 -127 404 -4 0 -111 -34 -239 -74z"/>
<path d="M575 3979 c-17 -4 -46 -23 -64 -41 -90 -88 -103 -253 -28 -351 80
-105 289 -130 390 -46 87 72 118 229 63 323 -27 47 -88 96 -117 96 -13 0 -21
-18 -33 -72 l-16 -71 32 -27 c39 -33 43 -78 9 -114 -66 -70 -251 -11 -251 81
0 29 50 83 78 83 16 0 22 11 31 61 7 34 15 67 18 75 4 11 -5 14 -38 13 -24 0
-58 -5 -74 -10z"/>
<path d="M1726 1402 l-38 -46 53 -47 53 -47 -36 -43 c-20 -24 -75 -89 -122
-144 -47 -54 -84 -100 -83 -101 1 -1 29 -24 61 -52 l59 -50 119 139 c66 76
123 139 127 139 5 0 29 -19 55 -41 l47 -42 25 24 c14 13 34 36 45 50 l19 26
-165 142 c-90 77 -168 141 -172 140 -4 0 -25 -21 -47 -47z"/>
<path d="M4527 1356 c-83 -31 -151 -92 -177 -161 -20 -51 -15 -145 10 -195 28
-57 84 -116 135 -143 56 -30 164 -30 220 0 80 42 140 125 151 206 14 98 -60
228 -157 277 -51 27 -134 34 -182 16z m89 -142 c49 -24 96 -86 101 -138 10
-88 -78 -132 -155 -78 -36 26 -82 98 -82 130 0 37 23 74 55 88 39 17 41 17 81
-2z"/>
<path d="M4065 1058 c-33 -11 -62 -22 -64 -24 -2 -1 15 -57 37 -123 22 -67 38
-121 35 -121 -2 0 -52 44 -110 99 l-105 98 -78 -25 -77 -25 75 -231 c40 -127
78 -235 83 -240 9 -10 126 21 135 35 3 5 -11 59 -31 120 -19 62 -35 117 -35
122 0 5 36 -24 81 -64 44 -41 95 -86 113 -101 l33 -28 64 21 c35 12 67 25 71
28 10 8 -145 474 -158 477 -5 1 -36 -7 -69 -18z"/>
<path d="M2267 1046 c-103 -28 -176 -126 -185 -247 -11 -160 99 -274 263 -274
111 1 179 47 229 155 32 69 35 164 7 225 -50 108 -195 173 -314 141z m154
-155 c33 -34 37 -65 14 -133 -33 -96 -116 -132 -173 -75 -22 23 -27 36 -26 75
1 53 32 123 66 146 36 26 85 20 119 -13z"/>
<path d="M2790 892 c0 -15 -7 -129 -16 -251 -8 -123 -14 -224 -12 -226 2 -1
38 -5 81 -8 l77 -5 0 51 c0 29 3 69 7 90 l6 38 51 -6 c71 -10 86 -27 93 -112
l6 -70 75 -7 c41 -3 76 -5 77 -4 1 2 -1 42 -5 90 -5 69 -11 94 -29 119 -23 30
-23 31 -3 45 46 32 64 116 38 178 -23 56 -70 77 -199 87 -61 4 -142 11 -179
14 l-68 5 0 -28z m278 -128 c45 -29 11 -84 -53 -84 -64 0 -75 9 -75 54 0 24 2
45 5 48 10 10 99 -4 123 -18z"/>
<path d="M3448 913 c-40 -3 -48 -7 -48 -24 0 -24 50 -483 53 -485 3 -3 148 13
151 17 2 2 -8 114 -23 249 l-26 245 -30 1 c-16 0 -51 -1 -77 -3z"/>
</g>
</svg>
